<?xml version="1.0" encoding="UTF-8"?>
<!DOCTYPE svg PUBLIC "-//W3C//DTD SVG 1.1//EN" "http://www.w3.org/Graphics/SVG/1.1/DTD/svg11.dtd">
<!-- Creator: CorelDRAW -->
<svg xmlns="http://www.w3.org/2000/svg" xml:space="preserve" width="2048px" height="2048px" style="shape-rendering:geometricPrecision; text-rendering:geometricPrecision; image-rendering:optimizeQuality; fill-rule:evenodd; clip-rule:evenodd"
viewBox="0 0 2048 2048"
 xmlns:xlink="http://www.w3.org/1999/xlink">
 <defs>
  <style type="text/css">
   <![CDATA[
    .fil1 {fill:none}
    .fil0 {fill:#212121;fill-rule:nonzero}
   ]]>
  </style>
 </defs>
 <g id="Layer_x0020_1">
  <metadata id="CorelCorpID_0Corel-Layer"/>
  <path class="fil0" d="M549.646 223.999l948.707 0c36.7843,0 70.2048,15.0272 94.4115,39.2339 24.2067,24.2067 39.2339,57.6272 39.2339,94.4115l0 902.102c-21.3201,-4.84961 -42.6567,-9.64016 -64.0016,-14.3835l0 -887.718c0,-19.1185 -7.84607,-36.5244 -20.4827,-49.1611 -12.6366,-12.6366 -30.0425,-20.4827 -49.1611,-20.4827l-948.707 0c-19.1185,0 -36.5244,7.84489 -49.1622,20.4827 -12.6366,12.6366 -20.4827,30.0425 -20.4827,49.1611l0 836.365c-6.21497,5.51575 -12.4654,10.9937 -18.7665,16.4197l-11.1213 9.57402 0 0.00708662c-9.92127,8.3256 -19.9949,16.4705 -30.2705,24.3543l-3.84331 0.511418 0 -887.232c0,-36.7843 15.0272,-70.2048 39.2339,-94.4115 24.2079,-24.2067 57.6284,-39.2339 94.4127,-39.2339zm13.5543 113.777l921.598 0 32.0008 0 0 32.0008 0 284.445 0 32.0008 -32.0008 0 -921.598 0 -32.0008 0 0 -32.0008 0 -284.445 0 -32.0008 32.0008 0zm889.598 64.0016l-857.597 0 0 220.443 857.597 0 0 -220.443zm-889.598 334.22l155.675 0 32.0008 0 0 32.0008 0 142.224 0 32.0008 -32.0008 0 -155.675 0 -32.0008 0 0 -32.0008 0 -142.224 0 -32.0008 32.0008 0zm123.675 64.0016l-91.6737 0 0 78.2221 91.6737 0 0 -78.2221zm131.633 -64.0016l155.675 0 32.0008 0 0 32.0008 0 142.224 0 32.0008 -32.0008 0 -155.675 0 -32.0008 0 0 -32.0008 0 -142.224 0 -32.0008 32.0008 0zm123.675 64.0016l-91.6737 0 0 78.2221 91.6737 0 0 -78.2221zm131.634 -64.0016l155.675 0 32.0008 0 0 32.0008 0 142.224 0 32.0008 -32.0008 0 -155.675 0 -32.0008 0 0 -32.0008 0 -142.224 0 -32.0008 32.0008 0zm123.675 64.0016l-91.6737 0 0 78.2221 91.6737 0 0 -78.2221zm131.633 -64.0016l155.675 0 32.0008 0 0 32.0008 0 142.224 0 32.0008 -32.0008 0 -155.675 0 -32.0008 0 0 -32.0008 0 -142.224 0 -32.0008 32.0008 0zm123.675 64.0016l-91.6737 0 0 78.2221 91.6737 0 0 -78.2221zm-889.598 191.999l155.675 0 32.0008 0 0 32.0008 0 3.87166c-35.2134,1.64173 -67.5934,12.0862 -98.1745,28.1292l-57.5008 0 0 37.3465c-22.1988,16.9205 -43.3229,35.5701 -64.0016,54.3189l0 -123.666 0 -32.0008 32.0008 0zm921.598 -0.0011811l32.0008 0 0 32.0008 0 204.248c-21.274,-11.9681 -42.6095,-23.8547 -64.0016,-35.6469l0 -136.6 -91.6737 0 0 86.8749c-9.54095,-5.08819 -19.0902,-10.1551 -28.6488,-15.1961 -11.7461,-6.19489 -23.5299,-12.3768 -35.3528,-18.5079l0 -85.1717 0 -32.0008 187.676 0z"/>
  <g id="_394196536">
   <rect id="_394189288" class="fil1" width="2048" height="2048"/>
   <rect id="_394189912" class="fil1" x="255.999" y="255.999" width="1536" height="1536"/>
  </g>
  <path class="fil0" d="M1724.98 1380.79c-25.9949,-8.69056 -220.38,-51.1713 -220.938,-51.293l-9.00001 -3.49961c-1.02165,-0.579922 -356.186,-202.491 -391.455,-202.491l-4.82244 0 0 -0.125197c-110.42,0.0153543 -336.134,0.259843 -338.12,0.259843 -29.4827,0 -57.4748,11.8476 -85.7611,30.5516 -31.1362,20.5902 -63.2646,49.8863 -97.7363,81.3213 -17.5228,15.9697 -35.9091,32.7059 -53.2819,47.6634l-0.0614174 -0.0720473c-19.1658,16.5012 -39.1949,32.8595 -60.0426,48.1335l-14.7496 5.87481 -147.813 19.6606c-3.56811,1.57914 -6.69331,4.14922 -9.06261,7.39134 -2.59961,3.55748 -4.13504,8.04686 -4.13504,13.0028l0 173.249c0,6.11575 2.47795,11.6528 6.48308,15.6579 4.00512,4.00512 9.54213,6.48308 15.6591,6.48308l103.876 0c-0.452363,5.68937 -0.683859,11.4165 -0.683859,17.1709 0,15.8977 1.7504,31.5886 5.1437,46.8307l-108.336 0c-23.7827,0 -45.3189,-9.64371 -60.9095,-25.2343 -15.5906,-15.5882 -25.2343,-37.1244 -25.2343,-60.9083l0 -173.249c0,-18.8858 6.17481,-36.4347 16.6358,-50.7532 10.5791,-14.4791 25.7232,-25.5461 43.4126,-31.1894l5.49922 -1.24961 142.898 -19.0075c17.3728,-13.0228 33.9012,-26.589 49.6701,-40.167l0 -0.125197c19.5166,-16.8036 36.2103,-31.9949 52.0323,-46.4138 36.2811,-33.0862 70.0961,-63.9201 105.484,-87.3213 38.2406,-25.2862 77.3729,-41.302 121.012,-41.302l338.12 -0.00944883 0 -0.125197 4.82244 0c48.7217,0 376.731,184.819 418.566,208.504 29.791,6.53859 195.412,43.0311 223.079,52.2804 36.8327,12.3154 60.1973,49.6099 71.1154,94.6961 10.9583,45.2492 9.8752,100.233 -2.80984,142.194 -6.82087,22.5201 -24.0201,45.4288 -53.6847,60.841 -21.5362,11.1898 -49.9382,18.5398 -85.9359,18.5398l-99.3721 0c3.38032,-15.2457 5.12599,-30.9366 5.12599,-46.8307 0,-5.75434 -0.231496,-11.4815 -0.683859,-17.1709l94.93 0c24.8634,0 43.324,-4.4752 56.4367,-11.2878 12.6969,-6.59646 19.6169,-14.941 21.9343,-22.5921 9.66615,-31.9748 10.4599,-74.0056 2.05866,-108.693 -6.06142,-25.0335 -16.0264,-44.7355 -29.3658,-49.1953zm-459.979 255.77l-516.867 0c3.38032,-15.2457 5.12599,-30.9366 5.12599,-46.8307 0,-5.75434 -0.231496,-11.4815 -0.683859,-17.1709l507.965 0c-0.452363,5.68937 -0.683859,11.4165 -0.683859,17.1709 0,15.8977 1.7504,31.5886 5.1437,46.8307z"/>
  <path class="fil0" d="M583.636 1723.8c-36.9733,0 -70.5024,-15.0343 -94.7765,-39.3059l0.0708662 -0.0696851c-24.3189,-24.3484 -39.3803,-57.8469 -39.3803,-94.6938 0,-36.9733 15.0354,-70.4989 39.3071,-94.7658 24.2729,-24.2693 57.7973,-39.3024 94.7788,-39.3024 36.9756,0 70.4977,15.0319 94.7682,39.3024 24.2681,24.2669 39.3012,57.7867 39.3012,94.7658 0,36.9733 -15.0343,70.4953 -39.3036,94.7658 -24.2705,24.2693 -57.7937,39.3036 -94.7658,39.3036zm-44.3091 -89.7721c11.3587,11.3575 27.0355,18.3921 44.3091,18.3921 17.2713,0 32.9433,-7.03465 44.2996,-18.3898 11.3539,-11.3563 18.3898,-27.0295 18.3898,-44.2996 0,-17.2748 -7.03465,-32.9457 -18.3874,-44.2996 -11.3563,-11.3563 -27.0295,-18.3886 -44.302,-18.3886 -17.2784,0 -32.9551,7.03347 -44.3115,18.3886 -11.3575,11.3563 -18.3945,27.0272 -18.3945,44.2996 0,17.3622 6.98386,33.026 18.2575,44.2973l0.13937 0z"/>
  <path class="fil0" d="M1418.96 1723.8c-36.9733,0 -70.4953,-15.0343 -94.7646,-39.3036 -24.2693,-24.2705 -39.3036,-57.7926 -39.3036,-94.7658 0,-36.9733 15.0343,-70.4953 39.3036,-94.7646 24.2693,-24.2693 57.7914,-39.3036 94.7646,-39.3036 36.9756,0 70.4989,15.0319 94.7694,39.3024 24.2669,24.2669 39.3,57.7867 39.3,94.7658 0,36.9733 -15.0343,70.4953 -39.3036,94.7658 -24.2705,24.2693 -57.7926,39.3036 -94.7658,39.3036zm-44.2985 -89.7698c11.3563,11.3563 27.026,18.3898 44.2985,18.3898 17.2701,0 32.9433,-7.03465 44.2996,-18.3898 11.3551,-11.3563 18.3898,-27.0295 18.3898,-44.2996 0,-17.2748 -7.03347,-32.9457 -18.3874,-44.2996 -11.3563,-11.3563 -27.0284,-18.3886 -44.302,-18.3886 -17.2725,0 -32.9422,7.03347 -44.2985,18.3898 -11.3563,11.3563 -18.3898,27.026 -18.3898,44.2985 0,17.2701 7.03583,32.9433 18.3898,44.2996z"/>
  <polygon class="fil0" points="413.114,1280 1568,1280 1568,1344 394.908,1344 "/>
  <polygon class="fil0" points="960.002,1088 960.002,1312 896,1312 896,1088 "/>
 </g>
</svg>
